<svg width="24" height="24" viewBox="0 0 24 24" fill="none" xmlns="http://www.w3.org/2000/svg">
<path d="M12 2.75C6.81508 2.75 2.75 6.51603 2.75 11C2.75 12.9663 3.84815 14.8969 5.60547 16.3613C7.35883 17.8224 9.69195 18.75 12 18.75C12.4142 18.75 12.75 19.0858 12.75 19.5V20.8467C14.2543 20.121 16.1331 18.9748 17.7451 17.5078C19.765 15.6697 21.25 13.4396 21.25 11H22.75C22.75 14.0604 20.9016 16.6636 18.7549 18.6172C16.5953 20.5824 14.0148 22.0017 12.2783 22.6963C12.0473 22.7886 11.7851 22.7606 11.5791 22.6211C11.3732 22.4816 11.25 22.2488 11.25 22V20.2188C8.81794 20.0415 6.45536 19.0227 4.64453 17.5137C2.65195 15.8531 1.25 13.5337 1.25 11C1.25 5.54285 6.13922 1.25 12 1.25V2.75ZM19 1.25C19.4142 1.25 19.75 1.58579 19.75 2V4.25H22C22.4142 4.25 22.75 4.58579 22.75 5C22.75 5.41421 22.4142 5.75 22 5.75H19.75V8C19.75 8.41421 19.4142 8.75 19 8.75C18.5858 8.75 18.25 8.41421 18.25 8V5.75H16C15.5858 5.75 15.25 5.41421 15.25 5C15.25 4.58579 15.5858 4.25 16 4.25H18.25V2C18.25 1.58579 18.5858 1.25 19 1.25Z" fill="white"/>
</svg>
